<svg xmlns="http://www.w3.org/2000/svg" width="15.5" height="15.5" viewBox="0 0 15.5 15.5">
<path id="face-laugh-beam-emoji" d="M7.75,8a7.75,7.75,0,1,0,7.75,7.75A7.749,7.749,0,0,0,7.75,8Zm4.419,12.169A6.247,6.247,0,1,1,14,15.75,6.207,6.207,0,0,1,12.169,20.169ZM10.25,12.5c-.744,0-1.647.916-1.75,2.231a.249.249,0,0,0,.466.141l.3-.531a1.169,1.169,0,0,1,.984-.675,1.169,1.169,0,0,1,.984.675l.3.531a.249.249,0,0,0,.466-.141C11.9,13.416,10.994,12.5,10.25,12.5ZM3.969,14.872l.3-.531a1.169,1.169,0,0,1,.984-.675,1.169,1.169,0,0,1,.984.675l.3.531A.249.249,0,0,0,7,14.731c-.1-1.316-1.006-2.231-1.75-2.231S3.6,13.416,3.5,14.731a.253.253,0,0,0,.472.141Zm7.356,1.878H4.175a.419.419,0,0,0-.422.469A3.793,3.793,0,0,0,7.537,20.5h.425a3.793,3.793,0,0,0,3.784-3.281.419.419,0,0,0-.422-.469Z" transform="translate(0 -8)" style="fill: rgb(29, 155, 240);"></path>
</svg>